<?xml version="1.0" standalone="no"?>
<!DOCTYPE svg PUBLIC "-//W3C//DTD SVG 20010904//EN"
 "http://www.w3.org/TR/2001/REC-SVG-20010904/DTD/svg10.dtd">
<svg version="1.0" xmlns="http://www.w3.org/2000/svg"
 width="45px" height="45px" viewBox="0 0 64.000000 64.000000"
 preserveAspectRatio="xMidYMid meet">

<g transform="translate(64.000000,64.000000) scale(-0.100000,-0.100000)"
fill="#000000" stroke="none">
<path d="M115 625 c-98 -52 -115 -97 -115 -305 0 -152 2 -169 22 -210 13 -24
40 -58 61 -74 l39 -31 198 0 198 0 39 31 c21 16 48 50 61 74 20 41 22 58 22
210 0 152 -2 169 -22 210 -13 24 -40 58 -61 74 l-39 31 -186 3 c-156 2 -192 0
-217 -13z m403 -55 c64 -39 72 -65 72 -250 0 -185 -8 -211 -72 -250 -29 -18
-51 -20 -198 -20 -147 0 -169 2 -198 20 -64 39 -72 65 -72 250 0 147 2 169 20
198 39 64 65 72 250 72 147 0 169 -2 198 -20z"/>
<path d="M323 424 c-3 -9 5 -26 21 -43 14 -15 26 -30 26 -34 0 -4 -42 -7 -94
-7 -98 0 -126 -11 -91 -37 12 -8 48 -13 104 -13 l85 0 -28 -29 c-29 -30 -30
-61 -4 -61 8 0 40 27 73 60 l59 60 -59 60 c-61 62 -81 71 -92 44z"/>
</g>
</svg>
